<svg xmlns="http://www.w3.org/2000/svg" viewBox="0 0 400 80">
  <g fill="#666666">
    <path d="M30,10 C15,10 5,20 5,35 C5,50 15,60 30,60 L30,70 C10,70 0,55 0,35 C0,15 15,0 35,0 C45,0 50,5 55,10 L30,10 Z"/>
    <path d="M370,10 C385,10 395,20 395,35 C395,50 385,60 370,60 L370,70 C390,70 400,55 400,35 C400,15 385,0 365,0 C355,0 350,5 345,10 L370,10 Z"/>
    <path d="M60,15 L60,60 L70,60 L70,15 Z"/>
    <path d="M80,15 L90,15 L105,50 L120,15 L130,15 L110,60 L100,60 Z"/>
    <path d="M135,15 L175,15 L175,25 L145,25 L145,32 L170,32 L170,42 L145,42 L145,50 L175,50 L175,60 L135,60 Z"/>
    <path d="M185,15 L195,15 L195,50 L220,50 L220,60 L185,60 Z"/>
    <path d="M225,15 L235,15 L235,60 L225,60 Z"/>
    <path d="M245,15 L255,15 L255,50 L280,50 L280,60 L245,60 Z"/>
    <path d="M285,15 L325,15 L325,25 L295,25 L295,32 L320,32 L320,42 L295,42 L295,50 L325,50 L325,60 L285,60 Z"/>
    <path d="M335,15 L345,15 L345,60 L335,60 Z"/>
  </g>
</svg>
