<svg xmlns="http://www.w3.org/2000/svg" viewBox="0 0 400 80">
  <g fill="#666666">
    <path d="M20,10 C10,10 5,20 5,40 C5,60 15,70 35,70 C55,70 65,60 65,40 L50,40 C50,50 45,55 35,55 C25,55 20,50 20,40 C20,30 25,25 35,25 C45,25 50,30 50,40 L65,40 C65,20 55,10 35,10 C25,10 20,10 20,10 Z"/>
    <path d="M75,15 L95,15 L95,30 L130,30 L130,15 L150,15 L150,70 L130,70 L130,45 L95,45 L95,70 L75,70 Z"/>
    <path d="M160,15 L230,15 L230,30 L210,30 L210,70 L180,70 L180,30 L160,30 Z"/>
    <path d="M240,15 L310,15 L310,30 L290,30 L290,70 L260,70 L260,30 L240,30 Z"/>
    <path d="M320,15 L340,15 L340,70 L320,70 Z"/>
    <path d="M350,10 C360,10 365,20 365,40 C365,60 355,70 335,70 C315,70 305,60 305,40 L320,40 C320,50 325,55 335,55 C345,55 350,50 350,40 C350,30 345,25 335,25 C325,25 320,30 320,40 L305,40 C305,20 315,10 335,10 C345,10 350,10 350,10 Z"/>
  </g>
</svg>
